<svg width="249" height="38" viewBox="0 0 249 38" fill="none" xmlns="http://www.w3.org/2000/svg">
<path d="M65.1881 31.6638H60.1181L59.0261 34.0948H58.0251L62.1851 24.9948H63.1341L67.2941 34.0948H66.2801L65.1881 31.6638ZM64.8371 30.8838L62.6531 25.9958L60.4691 30.8838H64.8371ZM73.1719 30.5588C74.0992 30.7755 74.5629 31.3345 74.5629 32.2358C74.5629 32.8338 74.3419 33.2931 73.8999 33.6138C73.4579 33.9345 72.7992 34.0948 71.9239 34.0948H68.8169V27.2568H71.8329C72.6129 27.2568 73.2239 27.4085 73.6659 27.7118C74.1079 28.0151 74.3289 28.4485 74.3289 29.0118C74.3289 29.3845 74.2249 29.7051 74.0169 29.9738C73.8176 30.2338 73.5359 30.4288 73.1719 30.5588ZM69.7139 30.2988H71.7679C72.2966 30.2988 72.6996 30.1991 72.9769 29.9998C73.2629 29.8005 73.4059 29.5101 73.4059 29.1288C73.4059 28.7475 73.2629 28.4615 72.9769 28.2708C72.6996 28.0801 72.2966 27.9848 71.7679 27.9848H69.7139V30.2988ZM71.8849 33.3668C72.4742 33.3668 72.9162 33.2715 73.2109 33.0808C73.5056 32.8901 73.6529 32.5911 73.6529 32.1838C73.6529 31.7765 73.5186 31.4775 73.2499 31.2868C72.9812 31.0875 72.5566 30.9878 71.9759 30.9878H69.7139V33.3668H71.8849ZM81.5361 28.0758H78.9491V34.0948H78.0261V28.0758H75.4391V27.2568H81.5361V28.0758ZM85.3742 34.1598C84.7156 34.1598 84.1219 34.0125 83.5932 33.7178C83.0646 33.4145 82.6486 32.9985 82.3452 32.4698C82.0419 31.9411 81.8902 31.3431 81.8902 30.6758C81.8902 30.0085 82.0419 29.4105 82.3452 28.8818C82.6486 28.3531 83.0646 27.9415 83.5932 27.6468C84.1219 27.3521 84.7156 27.2048 85.3742 27.2048C86.0329 27.2048 86.6266 27.3521 87.1552 27.6468C87.6839 27.9415 88.0956 28.3531 88.3902 28.8818C88.6936 29.4105 88.8452 30.0085 88.8452 30.6758C88.8452 31.3431 88.6936 31.9411 88.3902 32.4698C88.0956 32.9985 87.6839 33.4145 87.1552 33.7178C86.6266 34.0125 86.0329 34.1598 85.3742 34.1598ZM85.3742 33.3408C85.8596 33.3408 86.2929 33.2325 86.6742 33.0158C87.0642 32.7905 87.3676 32.4741 87.5842 32.0668C87.8009 31.6595 87.9092 31.1958 87.9092 30.6758C87.9092 30.1558 87.8009 29.6921 87.5842 29.2848C87.3676 28.8775 87.0642 28.5655 86.6742 28.3488C86.2929 28.1235 85.8596 28.0108 85.3742 28.0108C84.8889 28.0108 84.4512 28.1235 84.0612 28.3488C83.6799 28.5655 83.3766 28.8775 83.1512 29.2848C82.9346 29.6921 82.8262 30.1558 82.8262 30.6758C82.8262 31.1958 82.9346 31.6595 83.1512 32.0668C83.3766 32.4741 83.6799 32.7905 84.0612 33.0158C84.4512 33.2325 84.8889 33.3408 85.3742 33.3408ZM90.8179 27.2568H91.7409V30.2858H96.0439V27.2568H96.9669V34.0948H96.0439V31.0788H91.7409V34.0948H90.8179V27.2568ZM102.411 34.1598C101.753 34.1598 101.159 34.0125 100.63 33.7178C100.102 33.4145 99.6857 32.9985 99.3823 32.4698C99.079 31.9411 98.9273 31.3431 98.9273 30.6758C98.9273 30.0085 99.079 29.4105 99.3823 28.8818C99.6857 28.3531 100.102 27.9415 100.63 27.6468C101.159 27.3521 101.753 27.2048 102.411 27.2048C103.07 27.2048 103.664 27.3521 104.192 27.6468C104.721 27.9415 105.133 28.3531 105.427 28.8818C105.731 29.4105 105.882 30.0085 105.882 30.6758C105.882 31.3431 105.731 31.9411 105.427 32.4698C105.133 32.9985 104.721 33.4145 104.192 33.7178C103.664 34.0125 103.07 34.1598 102.411 34.1598ZM102.411 33.3408C102.897 33.3408 103.33 33.2325 103.711 33.0158C104.101 32.7905 104.405 32.4741 104.621 32.0668C104.838 31.6595 104.946 31.1958 104.946 30.6758C104.946 30.1558 104.838 29.6921 104.621 29.2848C104.405 28.8775 104.101 28.5655 103.711 28.3488C103.33 28.1235 102.897 28.0108 102.411 28.0108C101.926 28.0108 101.488 28.1235 101.098 28.3488C100.717 28.5655 100.414 28.8775 100.188 29.2848C99.9717 29.6921 99.8633 30.1558 99.8633 30.6758C99.8633 31.1958 99.9717 31.6595 100.188 32.0668C100.414 32.4741 100.717 32.7905 101.098 33.0158C101.488 33.2325 101.926 33.3408 102.411 33.3408ZM115.499 27.2568V34.0948H114.654V28.6868L111.885 33.2628H111.469L108.7 28.6738V34.0948H107.855V27.2568H108.791L111.69 32.1838L114.641 27.2568H115.499ZM118.125 27.2568H119.048V30.2858H123.351V27.2568H124.274V34.0948H123.351V31.0788H119.048V34.0948H118.125V27.2568ZM129.251 27.2048C130.144 27.2048 130.828 27.4301 131.305 27.8808C131.782 28.3228 132.02 28.9815 132.02 29.8568V34.0948H131.136V33.0288C130.928 33.3841 130.62 33.6615 130.213 33.8608C129.814 34.0601 129.338 34.1598 128.783 34.1598C128.02 34.1598 127.414 33.9778 126.963 33.6138C126.512 33.2498 126.287 32.7688 126.287 32.1708C126.287 31.5901 126.495 31.1221 126.911 30.7668C127.336 30.4115 128.007 30.2338 128.926 30.2338H131.097V29.8178C131.097 29.2285 130.932 28.7821 130.603 28.4788C130.274 28.1668 129.793 28.0108 129.16 28.0108C128.727 28.0108 128.311 28.0845 127.912 28.2318C127.513 28.3705 127.171 28.5655 126.885 28.8168L126.469 28.1278C126.816 27.8331 127.232 27.6078 127.717 27.4518C128.202 27.2871 128.714 27.2048 129.251 27.2048ZM128.926 33.4318C129.446 33.4318 129.892 33.3148 130.265 33.0808C130.638 32.8381 130.915 32.4915 131.097 32.0408V30.9228H128.952C127.782 30.9228 127.197 31.3301 127.197 32.1448C127.197 32.5435 127.349 32.8598 127.652 33.0938C127.955 33.3191 128.38 33.4318 128.926 33.4318ZM139.729 27.2568V34.0948H138.884V31.8328H136.739H136.479L134.893 34.0948H133.892L135.595 31.7028C135.066 31.5555 134.659 31.3041 134.373 30.9488C134.087 30.5935 133.944 30.1428 133.944 29.5968C133.944 28.8341 134.204 28.2535 134.724 27.8548C135.244 27.4561 135.955 27.2568 136.856 27.2568H139.729ZM134.88 29.6228C134.88 30.6368 135.526 31.1438 136.817 31.1438H138.884V28.0758H136.882C135.547 28.0758 134.88 28.5915 134.88 29.6228ZM148.246 31.0528H146.686V34.0948H145.763V27.2568H146.686V30.2598H148.259L150.664 27.2568H151.665L148.974 30.5718L151.86 34.0948H150.768L148.246 31.0528ZM155.543 27.2048C156.436 27.2048 157.12 27.4301 157.597 27.8808C158.074 28.3228 158.312 28.9815 158.312 29.8568V34.0948H157.428V33.0288C157.22 33.3841 156.912 33.6615 156.505 33.8608C156.106 34.0601 155.63 34.1598 155.075 34.1598C154.312 34.1598 153.706 33.9778 153.255 33.6138C152.804 33.2498 152.579 32.7688 152.579 32.1708C152.579 31.5901 152.787 31.1221 153.203 30.7668C153.628 30.4115 154.299 30.2338 155.218 30.2338H157.389V29.8178C157.389 29.2285 157.224 28.7821 156.895 28.4788C156.566 28.1668 156.085 28.0108 155.452 28.0108C155.019 28.0108 154.603 28.0845 154.204 28.2318C153.805 28.3705 153.463 28.5655 153.177 28.8168L152.761 28.1278C153.108 27.8331 153.524 27.6078 154.009 27.4518C154.494 27.2871 155.006 27.2048 155.543 27.2048ZM155.218 33.4318C155.738 33.4318 156.184 33.3148 156.557 33.0808C156.93 32.8381 157.207 32.4915 157.389 32.0408V30.9228H155.244C154.074 30.9228 153.489 31.3301 153.489 32.1448C153.489 32.5435 153.641 32.8598 153.944 33.0938C154.247 33.3191 154.672 33.4318 155.218 33.4318ZM160.769 27.2568H161.692V30.2858H165.995V27.2568H166.918V34.0948H165.995V31.0788H161.692V34.0948H160.769V27.2568ZM171.895 27.2048C172.787 27.2048 173.472 27.4301 173.949 27.8808C174.425 28.3228 174.664 28.9815 174.664 29.8568V34.0948H173.78V33.0288C173.572 33.3841 173.264 33.6615 172.857 33.8608C172.458 34.0601 171.981 34.1598 171.427 34.1598C170.664 34.1598 170.057 33.9778 169.607 33.6138C169.156 33.2498 168.931 32.7688 168.931 32.1708C168.931 31.5901 169.139 31.1221 169.555 30.7668C169.979 30.4115 170.651 30.2338 171.57 30.2338H173.741V29.8178C173.741 29.2285 173.576 28.7821 173.247 28.4788C172.917 28.1668 172.436 28.0108 171.804 28.0108C171.37 28.0108 170.954 28.0845 170.556 28.2318C170.157 28.3705 169.815 28.5655 169.529 28.8168L169.113 28.1278C169.459 27.8331 169.875 27.6078 170.361 27.4518C170.846 27.2871 171.357 27.2048 171.895 27.2048ZM171.57 33.4318C172.09 33.4318 172.536 33.3148 172.909 33.0808C173.281 32.8381 173.559 32.4915 173.741 32.0408V30.9228H171.596C170.426 30.9228 169.841 31.3301 169.841 32.1448C169.841 32.5435 169.992 32.8598 170.296 33.0938C170.599 33.3191 171.024 33.4318 171.57 33.4318ZM182.711 27.2568V34.0948H181.788V28.0758H178.512L178.421 29.7658C178.351 31.1871 178.187 32.2791 177.927 33.0418C177.667 33.8045 177.203 34.1858 176.536 34.1858C176.354 34.1858 176.133 34.1511 175.873 34.0818L175.938 33.2888C176.094 33.3235 176.202 33.3408 176.263 33.3408C176.618 33.3408 176.887 33.1761 177.069 32.8468C177.251 32.5175 177.372 32.1101 177.433 31.6248C177.493 31.1395 177.545 30.4981 177.589 29.7008L177.706 27.2568H182.711ZM185.334 27.2568H186.257V32.6908L190.82 27.2568H191.639V34.0948H190.716V28.6608L186.166 34.0948H185.334V27.2568ZM197.473 30.5328C197.958 30.6455 198.331 30.8405 198.591 31.1178C198.86 31.3951 198.994 31.7331 198.994 32.1318C198.994 32.5305 198.855 32.8858 198.578 33.1978C198.309 33.5098 197.941 33.7525 197.473 33.9258C197.005 34.0905 196.489 34.1728 195.926 34.1728C195.432 34.1728 194.947 34.1035 194.47 33.9648C193.993 33.8175 193.577 33.6051 193.222 33.3278L193.534 32.6388C193.846 32.8728 194.21 33.0548 194.626 33.1848C195.042 33.3148 195.462 33.3798 195.887 33.3798C196.52 33.3798 197.035 33.2628 197.434 33.0288C197.841 32.7861 198.045 32.4611 198.045 32.0538C198.045 31.6898 197.88 31.4081 197.551 31.2088C197.222 31.0008 196.771 30.8968 196.199 30.8968H195.029V30.2208H196.147C196.658 30.2208 197.07 30.1255 197.382 29.9348C197.694 29.7355 197.85 29.4711 197.85 29.1418C197.85 28.7778 197.672 28.4918 197.317 28.2838C196.97 28.0758 196.515 27.9718 195.952 27.9718C195.215 27.9718 194.487 28.1581 193.768 28.5308L193.508 27.8158C194.323 27.3911 195.168 27.1788 196.043 27.1788C196.563 27.1788 197.031 27.2568 197.447 27.4128C197.872 27.5601 198.201 27.7725 198.435 28.0498C198.678 28.3271 198.799 28.6478 198.799 29.0118C198.799 29.3585 198.678 29.6661 198.435 29.9348C198.201 30.2035 197.88 30.4028 197.473 30.5328ZM203.442 27.2048C204.335 27.2048 205.02 27.4301 205.496 27.8808C205.973 28.3228 206.211 28.9815 206.211 29.8568V34.0948H205.327V33.0288C205.119 33.3841 204.812 33.6615 204.404 33.8608C204.006 34.0601 203.529 34.1598 202.974 34.1598C202.212 34.1598 201.605 33.9778 201.154 33.6138C200.704 33.2498 200.478 32.7688 200.478 32.1708C200.478 31.5901 200.686 31.1221 201.102 30.7668C201.527 30.4115 202.199 30.2338 203.117 30.2338H205.288V29.8178C205.288 29.2285 205.124 28.7821 204.794 28.4788C204.465 28.1668 203.984 28.0108 203.351 28.0108C202.918 28.0108 202.502 28.0845 202.103 28.2318C201.705 28.3705 201.362 28.5655 201.076 28.8168L200.66 28.1278C201.007 27.8331 201.423 27.6078 201.908 27.4518C202.394 27.2871 202.905 27.2048 203.442 27.2048ZM203.117 33.4318C203.637 33.4318 204.084 33.3148 204.456 33.0808C204.829 32.8381 205.106 32.4915 205.288 32.0408V30.9228H203.143C201.973 30.9228 201.388 31.3301 201.388 32.1448C201.388 32.5435 201.54 32.8598 201.843 33.0938C202.147 33.3191 202.571 33.4318 203.117 33.4318ZM215.792 33.2888V35.8108H214.921V34.0948H208.668V27.2568H209.591V33.2888H213.764V27.2568H214.687V33.2888H215.792ZM217.555 27.2568H218.478V32.6908L223.041 27.2568H223.86V34.0948H222.937V28.6608L218.387 34.0948H217.555V27.2568ZM231.757 27.2568V34.0948H230.912V31.8328H228.767H228.507L226.921 34.0948H225.92L227.623 31.7028C227.095 31.5555 226.687 31.3041 226.401 30.9488C226.115 30.5935 225.972 30.1428 225.972 29.5968C225.972 28.8341 226.232 28.2535 226.752 27.8548C227.272 27.4561 227.983 27.2568 228.884 27.2568H231.757ZM226.908 29.6228C226.908 30.6368 227.554 31.1438 228.845 31.1438H230.912V28.0758H228.91C227.576 28.0758 226.908 28.5915 226.908 29.6228Z" fill="white"/>
<path d="M63.7401 4.40521C64.7101 4.40521 65.5551 4.56521 66.2751 4.88521C66.9951 5.20521 67.5501 5.66521 67.9401 6.26521C68.3301 6.86521 68.5251 7.56521 68.5251 8.36521C68.5251 9.16521 68.3301 9.86521 67.9401 10.4652C67.5501 11.0652 66.9951 11.5252 66.2751 11.8452C65.5551 12.1652 64.7101 12.3252 63.7401 12.3252H62.2251V14.9052H58.6851V4.40521H63.7401ZM63.5151 9.59521C63.9951 9.59521 64.3551 9.49021 64.5951 9.28021C64.8351 9.06021 64.9551 8.75521 64.9551 8.36521C64.9551 7.97521 64.8351 7.67521 64.5951 7.46521C64.3551 7.24521 63.9951 7.13521 63.5151 7.13521H62.2251V9.59521H63.5151ZM73.916 15.0552C73.006 15.0552 72.186 14.8752 71.456 14.5152C70.736 14.1452 70.171 13.6402 69.761 13.0002C69.351 12.3502 69.146 11.6152 69.146 10.7952C69.146 9.97521 69.351 9.24521 69.761 8.60521C70.171 7.95521 70.736 7.45021 71.456 7.09021C72.186 6.73021 73.006 6.55021 73.916 6.55021C74.836 6.55021 75.656 6.73021 76.376 7.09021C77.106 7.45021 77.671 7.95521 78.071 8.60521C78.481 9.24521 78.686 9.97521 78.686 10.7952C78.686 11.6152 78.481 12.3502 78.071 13.0002C77.671 13.6402 77.106 14.1452 76.376 14.5152C75.656 14.8752 74.836 15.0552 73.916 15.0552ZM73.916 12.4152C74.306 12.4152 74.626 12.2752 74.876 11.9952C75.126 11.7052 75.251 11.3052 75.251 10.7952C75.251 10.2852 75.126 9.89021 74.876 9.61021C74.626 9.33021 74.306 9.19021 73.916 9.19021C73.526 9.19021 73.206 9.33021 72.956 9.61021C72.706 9.89021 72.581 10.2852 72.581 10.7952C72.581 11.3052 72.706 11.7052 72.956 11.9952C73.206 12.2752 73.526 12.4152 73.916 12.4152ZM79.7471 3.77521H83.1371V14.9052H79.7471V3.77521ZM93.7746 6.70021L90.3996 15.0702C89.9696 16.1402 89.4346 16.8902 88.7946 17.3202C88.1546 17.7502 87.3696 17.9652 86.4396 17.9652C85.9796 17.9652 85.5146 17.8952 85.0446 17.7552C84.5846 17.6252 84.2196 17.4502 83.9496 17.2302L85.0746 14.9052C85.2446 15.0352 85.4346 15.1402 85.6446 15.2202C85.8646 15.3002 86.0746 15.3402 86.2746 15.3402C86.6446 15.3402 86.9246 15.2302 87.1146 15.0102L83.6646 6.70021H87.1446L88.8396 11.0952L90.5646 6.70021H93.7746ZM105.153 6.55021C106.143 6.55021 106.933 6.85521 107.523 7.46521C108.123 8.07521 108.423 8.99521 108.423 10.2252V14.9052H105.033V10.8102C105.033 9.87021 104.728 9.40021 104.118 9.40021C103.798 9.40021 103.538 9.52021 103.338 9.76021C103.148 10.0002 103.053 10.3802 103.053 10.9002V14.9052H99.663V10.8102C99.663 9.87021 99.358 9.40021 98.748 9.40021C98.428 9.40021 98.168 9.52021 97.968 9.76021C97.778 10.0002 97.683 10.3802 97.683 10.9002V14.9052H94.293V6.70021H97.518V7.46521C98.128 6.85521 98.903 6.55021 99.843 6.55021C100.393 6.55021 100.888 6.65521 101.328 6.86521C101.768 7.06521 102.128 7.37521 102.408 7.79521C102.738 7.39521 103.138 7.09021 103.608 6.88021C104.078 6.66021 104.593 6.55021 105.153 6.55021ZM118.77 10.7952C118.77 10.8452 118.755 11.1102 118.725 11.5902H113.025C113.145 11.9002 113.345 12.1402 113.625 12.3102C113.905 12.4702 114.255 12.5502 114.675 12.5502C115.035 12.5502 115.335 12.5052 115.575 12.4152C115.825 12.3252 116.095 12.1702 116.385 11.9502L118.155 13.7352C117.355 14.6152 116.16 15.0552 114.57 15.0552C113.58 15.0552 112.71 14.8752 111.96 14.5152C111.21 14.1452 110.63 13.6352 110.22 12.9852C109.81 12.3352 109.605 11.6052 109.605 10.7952C109.605 9.97521 109.805 9.24521 110.205 8.60521C110.615 7.95521 111.17 7.45021 111.87 7.09021C112.58 6.73021 113.375 6.55021 114.255 6.55021C115.085 6.55021 115.84 6.71521 116.52 7.04521C117.21 7.37521 117.755 7.86021 118.155 8.50021C118.565 9.14021 118.77 9.90521 118.77 10.7952ZM114.285 8.86021C113.935 8.86021 113.645 8.95521 113.415 9.14521C113.185 9.33521 113.035 9.60521 112.965 9.95521H115.605C115.535 9.61521 115.385 9.35021 115.155 9.16021C114.925 8.96021 114.635 8.86021 114.285 8.86021ZM123.065 7.58521C123.665 6.89521 124.55 6.55021 125.72 6.55021V9.55021C125.45 9.51021 125.2 9.49021 124.97 9.49021C123.81 9.49021 123.23 10.0802 123.23 11.2602V14.9052H119.84V6.70021H123.065V7.58521ZM137.223 14.6202C136.713 14.9102 136.018 15.0552 135.138 15.0552C133.988 15.0552 133.103 14.7802 132.483 14.2302C131.863 13.6702 131.553 12.8352 131.553 11.7252V9.62521H130.428V7.15021H131.553V4.85521H134.943V7.15021H136.623V9.62521H134.943V11.6952C134.943 11.9452 135.008 12.1402 135.138 12.2802C135.268 12.4202 135.438 12.4902 135.648 12.4902C135.938 12.4902 136.193 12.4152 136.413 12.2652L137.223 14.6202ZM146.587 10.7952C146.587 10.8452 146.572 11.1102 146.542 11.5902H140.842C140.962 11.9002 141.162 12.1402 141.442 12.3102C141.722 12.4702 142.072 12.5502 142.492 12.5502C142.852 12.5502 143.152 12.5052 143.392 12.4152C143.642 12.3252 143.912 12.1702 144.202 11.9502L145.972 13.7352C145.172 14.6152 143.977 15.0552 142.387 15.0552C141.397 15.0552 140.527 14.8752 139.777 14.5152C139.027 14.1452 138.447 13.6352 138.037 12.9852C137.627 12.3352 137.422 11.6052 137.422 10.7952C137.422 9.97521 137.622 9.24521 138.022 8.60521C138.432 7.95521 138.987 7.45021 139.687 7.09021C140.397 6.73021 141.192 6.55021 142.072 6.55021C142.902 6.55021 143.657 6.71521 144.337 7.04521C145.027 7.37521 145.572 7.86021 145.972 8.50021C146.382 9.14021 146.587 9.90521 146.587 10.7952ZM142.102 8.86021C141.752 8.86021 141.462 8.95521 141.232 9.14521C141.002 9.33521 140.852 9.60521 140.782 9.95521H143.422C143.352 9.61521 143.202 9.35021 142.972 9.16021C142.742 8.96021 142.452 8.86021 142.102 8.86021ZM152.067 15.0552C151.137 15.0552 150.302 14.8752 149.562 14.5152C148.832 14.1552 148.257 13.6502 147.837 13.0002C147.427 12.3502 147.222 11.6152 147.222 10.7952C147.222 9.97521 147.427 9.24521 147.837 8.60521C148.257 7.95521 148.832 7.45021 149.562 7.09021C150.302 6.73021 151.137 6.55021 152.067 6.55021C153.067 6.55021 153.922 6.76521 154.632 7.19521C155.342 7.62521 155.832 8.22021 156.102 8.98021L153.477 10.2702C153.157 9.55021 152.682 9.19021 152.052 9.19021C151.652 9.19021 151.317 9.33021 151.047 9.61021C150.787 9.89021 150.657 10.2852 150.657 10.7952C150.657 11.3152 150.787 11.7152 151.047 11.9952C151.317 12.2752 151.652 12.4152 152.052 12.4152C152.682 12.4152 153.157 12.0552 153.477 11.3352L156.102 12.6252C155.832 13.3852 155.342 13.9802 154.632 14.4102C153.922 14.8402 153.067 15.0552 152.067 15.0552ZM162.586 6.55021C163.596 6.55021 164.406 6.85521 165.016 7.46521C165.636 8.07521 165.946 8.99521 165.946 10.2252V14.9052H162.556V10.8102C162.556 9.87021 162.221 9.40021 161.551 9.40021C161.171 9.40021 160.861 9.53521 160.621 9.80521C160.391 10.0652 160.276 10.4802 160.276 11.0502V14.9052H156.886V3.77521H160.276V7.36021C160.906 6.82021 161.676 6.55021 162.586 6.55021ZM173.118 6.55021C174.128 6.55021 174.938 6.85521 175.548 7.46521C176.168 8.07521 176.478 8.99521 176.478 10.2252V14.9052H173.088V10.8102C173.088 9.87021 172.753 9.40021 172.083 9.40021C171.703 9.40021 171.393 9.53521 171.153 9.80521C170.923 10.0652 170.808 10.4802 170.808 11.0502V14.9052H167.418V6.70021H170.643V7.51021C170.963 7.19021 171.333 6.95021 171.753 6.79021C172.173 6.63021 172.628 6.55021 173.118 6.55021ZM182.432 15.0552C181.522 15.0552 180.702 14.8752 179.972 14.5152C179.252 14.1452 178.687 13.6402 178.277 13.0002C177.867 12.3502 177.662 11.6152 177.662 10.7952C177.662 9.97521 177.867 9.24521 178.277 8.60521C178.687 7.95521 179.252 7.45021 179.972 7.09021C180.702 6.73021 181.522 6.55021 182.432 6.55021C183.352 6.55021 184.172 6.73021 184.892 7.09021C185.622 7.45021 186.187 7.95521 186.587 8.60521C186.997 9.24521 187.202 9.97521 187.202 10.7952C187.202 11.6152 186.997 12.3502 186.587 13.0002C186.187 13.6402 185.622 14.1452 184.892 14.5152C184.172 14.8752 183.352 15.0552 182.432 15.0552ZM182.432 12.4152C182.822 12.4152 183.142 12.2752 183.392 11.9952C183.642 11.7052 183.767 11.3052 183.767 10.7952C183.767 10.2852 183.642 9.89021 183.392 9.61021C183.142 9.33021 182.822 9.19021 182.432 9.19021C182.042 9.19021 181.722 9.33021 181.472 9.61021C181.222 9.89021 181.097 10.2852 181.097 10.7952C181.097 11.3052 181.222 11.7052 181.472 11.9952C181.722 12.2752 182.042 12.4152 182.432 12.4152ZM188.263 3.77521H191.653V14.9052H188.263V3.77521ZM197.49 15.0552C196.58 15.0552 195.76 14.8752 195.03 14.5152C194.31 14.1452 193.745 13.6402 193.335 13.0002C192.925 12.3502 192.72 11.6152 192.72 10.7952C192.72 9.97521 192.925 9.24521 193.335 8.60521C193.745 7.95521 194.31 7.45021 195.03 7.09021C195.76 6.73021 196.58 6.55021 197.49 6.55021C198.41 6.55021 199.23 6.73021 199.95 7.09021C200.68 7.45021 201.245 7.95521 201.645 8.60521C202.055 9.24521 202.26 9.97521 202.26 10.7952C202.26 11.6152 202.055 12.3502 201.645 13.0002C201.245 13.6402 200.68 14.1452 199.95 14.5152C199.23 14.8752 198.41 15.0552 197.49 15.0552ZM197.49 12.4152C197.88 12.4152 198.2 12.2752 198.45 11.9952C198.7 11.7052 198.825 11.3052 198.825 10.7952C198.825 10.2852 198.7 9.89021 198.45 9.61021C198.2 9.33021 197.88 9.19021 197.49 9.19021C197.1 9.19021 196.78 9.33021 196.53 9.61021C196.28 9.89021 196.155 10.2852 196.155 10.7952C196.155 11.3052 196.28 11.7052 196.53 11.9952C196.78 12.2752 197.1 12.4152 197.49 12.4152ZM212.486 6.70021V13.2702C212.486 14.8302 212.051 16.0002 211.181 16.7802C210.321 17.5702 209.091 17.9652 207.491 17.9652C206.671 17.9652 205.906 17.8752 205.196 17.6952C204.486 17.5252 203.881 17.2752 203.381 16.9452L204.521 14.6352C204.841 14.8752 205.246 15.0702 205.736 15.2202C206.226 15.3702 206.696 15.4452 207.146 15.4452C207.826 15.4452 208.321 15.3002 208.631 15.0102C208.941 14.7202 209.096 14.2952 209.096 13.7352V13.5852C208.586 14.1652 207.831 14.4552 206.831 14.4552C206.131 14.4552 205.476 14.2952 204.866 13.9752C204.266 13.6452 203.786 13.1802 203.426 12.5802C203.066 11.9702 202.886 11.2752 202.886 10.4952C202.886 9.71521 203.066 9.02521 203.426 8.42521C203.786 7.82521 204.266 7.36521 204.866 7.04521C205.476 6.71521 206.131 6.55021 206.831 6.55021C207.951 6.55021 208.761 6.91021 209.261 7.63021V6.70021H212.486ZM207.731 11.8152C208.131 11.8152 208.461 11.6952 208.721 11.4552C208.991 11.2052 209.126 10.8852 209.126 10.4952C209.126 10.1052 208.991 9.79021 208.721 9.55021C208.461 9.31021 208.131 9.19021 207.731 9.19021C207.321 9.19021 206.981 9.31021 206.711 9.55021C206.451 9.79021 206.321 10.1052 206.321 10.4952C206.321 10.8852 206.456 11.2052 206.726 11.4552C206.996 11.6952 207.331 11.8152 207.731 11.8152ZM223.12 6.70021L219.745 15.0702C219.315 16.1402 218.78 16.8902 218.14 17.3202C217.5 17.7502 216.715 17.9652 215.785 17.9652C215.325 17.9652 214.86 17.8952 214.39 17.7552C213.93 17.6252 213.565 17.4502 213.295 17.2302L214.42 14.9052C214.59 15.0352 214.78 15.1402 214.99 15.2202C215.21 15.3002 215.42 15.3402 215.62 15.3402C215.99 15.3402 216.27 15.2302 216.46 15.0102L213.01 6.70021H216.49L218.185 11.0952L219.91 6.70021H223.12Z" fill="white"/>
<g clip-path="url(#clip0)">
<path d="M31.5088 14.4137L18.8641 3.19836C17.5446 1.93386 15.4555 1.93386 14.136 3.19836L9.90274 7.04673V5.56235H10.4525C10.7824 5.56235 11.0022 5.34246 11.0022 5.0126V2.81354C11.0022 2.48368 10.7824 2.26379 10.4525 2.26379H3.8553C3.52544 2.26379 3.30555 2.48368 3.30555 2.81354V5.0126C3.30555 5.34246 3.52544 5.56235 3.8553 5.56235H4.40505V11.8847L1.4913 14.4137C1.10649 14.7985 0.996511 15.2933 1.16144 15.7881C1.32637 16.2279 1.82117 16.5578 2.31596 16.5578H4.40511V31.9514H3.8553C3.52544 31.9514 3.30555 32.1713 3.30555 32.5011V34.7002C3.30555 35.0301 3.52544 35.2499 3.8553 35.2499H29.1448C29.4197 35.2499 29.6945 35.0301 29.6945 34.6452V32.4461C29.6945 32.2812 29.6396 32.1712 29.5296 32.0613C29.4196 31.9513 29.3097 31.8964 29.1448 31.8964H28.595V16.5028H30.6842C31.2339 16.5028 31.6737 16.2279 31.8387 15.7331C32.0036 15.2933 31.8936 14.7436 31.5088 14.4137ZM30.7941 15.4033C30.7391 15.4582 30.6841 15.4582 30.6841 15.4582H28.0452C27.7153 15.4582 27.4954 15.6781 27.4954 16.008V32.5011C27.4954 32.831 27.7153 33.0509 28.0452 33.0509H28.5949V34.1504H4.40505V33.0509H4.9548C5.28466 33.0509 5.50455 32.8311 5.50455 32.5012V16.008C5.50455 15.6782 5.28466 15.4583 4.9548 15.4583H2.3159C2.26094 15.4583 2.20592 15.4583 2.20592 15.4033C2.20592 15.3484 2.20592 15.2934 2.26088 15.2384L5.33962 12.5995C5.44959 12.4895 5.50455 12.3246 5.50455 12.1597V5.0126C5.50455 4.68274 5.28466 4.46285 4.9548 4.46285H4.40505V3.36329H9.90274V4.46285H9.35299C9.02313 4.46285 8.80324 4.68274 8.80324 5.0126V8.31123C8.80324 8.53112 8.91322 8.75107 9.1331 8.916C9.35299 8.97096 9.57294 8.97096 9.73787 8.80602L14.9057 4.07797C15.7853 3.19836 17.1598 3.19836 18.0944 4.07797L30.7391 15.2933C30.7941 15.2933 30.8491 15.3483 30.7941 15.4033Z" fill="white"/>
<path d="M19.7987 17.6574H17.5996V15.4583H19.2489C19.5788 15.4583 19.7987 15.2384 19.7987 14.9085C19.7987 14.5787 19.5788 14.3588 19.2489 14.3588H14.8507C14.5209 14.3588 14.301 14.5787 14.301 14.9085C14.301 15.2384 14.5209 15.4583 14.8507 15.4583H16.5001V17.6574H9.35299C9.02313 17.6574 8.80324 17.8772 8.80324 18.2071V21.5057C8.80324 21.8356 9.02313 22.0555 9.35299 22.0555H19.029C19.139 22.0555 19.2489 22.1655 19.2489 22.2754V25.3541C19.2489 25.684 19.4688 25.9039 19.7986 25.9039H23.0972C23.4271 25.9039 23.647 25.684 23.647 25.3541V21.5057C23.6471 19.3616 21.9428 17.6574 19.7987 17.6574ZM22.5475 24.8044H20.3484V22.2754C20.3484 21.5608 19.7437 20.956 19.029 20.956H9.9028V18.7569H19.7987C21.338 18.7569 22.5476 19.9664 22.5476 21.5058V24.8044H22.5475Z" fill="white"/>
<path d="M21.8328 27.1684C21.6129 26.9485 21.2831 26.9485 21.0631 27.1684L19.9636 28.2679C19.1389 29.0926 19.1389 30.412 19.9636 31.2367C20.3484 31.6215 20.8982 31.8415 21.4479 31.8415C21.9977 31.8415 22.5475 31.6765 22.9323 31.2367C23.757 30.412 23.757 29.0926 22.9323 28.2679L21.8328 27.1684ZM22.1627 30.467C21.7779 30.8518 21.1181 30.8518 20.7333 30.467C20.3484 30.0822 20.3484 29.4225 20.7333 29.0376L21.4479 28.3229L22.1627 29.0376C22.5475 29.4224 22.5475 30.0822 22.1627 30.467Z" fill="white"/>
</g>
<line x1="44.3301" y1="2.5" x2="44.3301" y2="35.5" stroke="white"/>
<defs>
<clipPath id="clip0">
<rect width="33" height="33" fill="white" transform="translate(3.05176e-05 2.25)"/>
</clipPath>
</defs>
</svg>
