<svg width="15" height="15" viewBox="0 0 15 15" fill="none" xmlns="http://www.w3.org/2000/svg">
<g clip-path="url(#clip0)">
<path d="M14.2799 10.755L12.4649 8.92501C12.1649 8.62501 11.7599 8.44501 11.3849 8.44501C10.9799 8.44501 10.6199 8.61001 10.3049 8.92501L9.25488 9.97501C9.20989 9.94501 9.14989 9.91501 9.10489 9.90001C9.10489 9.90001 9.08989 9.90001 9.08989 9.88501L9.07489 9.87001C8.93989 9.78001 8.78989 9.69001 8.60989 9.61501C7.69489 9.04501 6.83989 8.25001 5.96989 7.18501C5.56489 6.67501 5.27989 6.22501 5.05489 5.73001C5.29489 5.53501 5.47489 5.34001 5.60989 5.19001L6.07489 4.72501C6.43489 4.39501 6.61489 4.02001 6.61489 3.63001C6.61489 3.22501 6.43489 2.85001 6.08989 2.49001L4.66489 1.06501C4.52989 0.930007 4.39489 0.795007 4.24489 0.660007C3.94489 0.375007 3.56989 0.210007 3.17989 0.210007C2.74489 0.210007 2.38489 0.360007 2.05489 0.690007L0.959886 1.78501C0.524886 2.19001 0.269886 2.70001 0.209886 3.33001V3.34501C0.179886 4.12501 0.299885 4.84501 0.629885 5.74501C1.15489 7.15501 1.94989 8.47501 3.13489 9.93001C4.67989 11.67 6.41989 13.02 8.35489 13.95L8.39989 13.965C8.96989 14.22 10.0499 14.7 11.2499 14.775H11.4149C12.2099 14.775 12.8099 14.52 13.3049 13.98C13.4849 13.77 13.6799 13.575 13.8449 13.395C13.9799 13.29 14.0699 13.185 14.1599 13.08L14.2799 12.96L14.3099 12.93C14.9399 12.24 14.9399 11.4 14.2799 10.755ZM13.7549 12.42L13.6049 12.57L13.5899 12.6C13.5149 12.69 13.4549 12.765 13.3799 12.825L13.3349 12.87C13.1549 13.05 12.9449 13.26 12.7349 13.5C12.3899 13.875 11.9999 14.04 11.4149 14.04H11.2949C10.2449 13.965 9.28489 13.545 8.71489 13.29L8.68489 13.275C6.83989 12.39 5.17489 11.1 3.71989 9.45001C2.57989 8.07001 1.82989 6.81001 1.33489 5.49001C1.03489 4.66501 0.929886 4.06501 0.959886 3.39001C1.00489 2.95501 1.16989 2.61001 1.46989 2.34001L2.57989 1.23001C2.75989 1.05001 2.93989 0.975007 3.16489 0.975007C3.35989 0.975007 3.53989 1.06501 3.70489 1.21501L3.71989 1.23001C3.85489 1.35001 3.98989 1.48501 4.12489 1.62001L5.54989 3.04501C5.81989 3.31501 5.86489 3.52501 5.86489 3.64501C5.86489 3.76501 5.83489 3.94501 5.54989 4.20001L5.06989 4.68001C4.90489 4.86001 4.70989 5.05501 4.45489 5.26501L4.42489 5.29501L4.39489 5.34001C4.25989 5.52001 4.24489 5.68501 4.31989 5.92501L4.33489 5.98501L4.34989 6.04501C4.60489 6.60001 4.91989 7.11001 5.36989 7.68001C6.29989 8.82001 7.22989 9.67501 8.21989 10.29L8.26488 10.32C8.38489 10.38 8.50489 10.44 8.60989 10.5C8.65489 10.545 8.71489 10.575 8.75988 10.59C8.81989 10.62 8.86489 10.635 8.89489 10.665L8.99989 10.74H9.02989L9.07489 10.755C9.16489 10.785 9.22489 10.785 9.26989 10.785C9.41989 10.785 9.55488 10.725 9.68989 10.59L10.8149 9.46501C10.9949 9.28501 11.1599 9.21001 11.3699 9.21001C11.5949 9.21001 11.8049 9.34501 11.9249 9.46501L13.7549 11.295C14.1149 11.655 14.1299 12.03 13.7549 12.42Z" fill="white"/>
</g>
<defs>
<clipPath id="clip0">
<rect width="15" height="15" fill="white" transform="translate(-0.00012207)"/>
</clipPath>
</defs>
</svg>
