<svg width="226" height="63" viewBox="0 0 226 63" fill="none" xmlns="http://www.w3.org/2000/svg">
<path d="M16.72 53.1C14.3367 53.1 12.21 52.605 10.34 51.615C8.47 50.5883 7.00333 49.14 5.94 47.27C4.87667 45.4 4.345 43.2183 4.345 40.725V10.75H6.16V40.67C6.16 42.87 6.61833 44.795 7.535 46.445C8.45167 48.0583 9.69833 49.305 11.275 50.185C12.8883 51.065 14.685 51.505 16.665 51.505C18.645 51.505 20.4233 51.0833 22 50.24C23.6133 49.36 24.86 48.1133 25.74 46.5C26.6567 44.85 27.115 42.9067 27.115 40.67V10.75H28.93V40.615C28.93 43.145 28.4167 45.3633 27.39 47.27C26.3633 49.14 24.915 50.5883 23.045 51.615C21.2117 52.605 19.1033 53.1 16.72 53.1ZM61.2958 52L39.4608 29.065V52H37.6458V10.75H39.4608V25.71L56.6758 10.75H59.2608L39.9558 27.25L63.7158 52H61.2958ZM69.3889 10.75H71.7539C76.0439 10.75 79.3439 11.8867 81.6539 14.16C84.0006 16.4333 85.1739 19.6783 85.1739 23.895C85.1739 26.315 84.5873 28.5333 83.4139 30.55C82.2773 32.5667 80.7189 34.1617 78.7389 35.335C76.7589 36.4717 74.5773 37.04 72.1939 37.04H71.8089L85.9989 52H83.6339L71.1489 38.91V52H69.3889V10.75ZM72.1389 35.445C74.2289 35.445 76.1356 34.9317 77.8589 33.905C79.5823 32.8783 80.9389 31.5033 81.9289 29.78C82.9189 28.02 83.4139 26.0767 83.4139 23.95C83.4139 20.2467 82.4056 17.3867 80.3889 15.37C78.4089 13.3533 75.5673 12.345 71.8639 12.345H71.1489V35.445H72.1389ZM111.469 53.1C107.619 53.1 104.08 52.165 100.854 50.295C97.627 48.3883 95.0603 45.785 93.1537 42.485C91.2837 39.1483 90.3487 35.4083 90.3487 31.265C90.3487 27.2683 91.3203 23.62 93.2637 20.32C95.2437 17.02 97.8653 14.4167 101.129 12.51C104.429 10.6033 107.93 9.65 111.634 9.65C114.2 9.65 116.235 9.88833 117.739 10.365C119.242 10.805 120.984 11.5933 122.964 12.73V14.765C121.094 13.4817 119.352 12.5833 117.739 12.07C116.162 11.52 114.182 11.245 111.799 11.245C108.169 11.245 104.85 12.18 101.844 14.05C98.8737 15.8833 96.5087 18.3583 94.7487 21.475C93.0253 24.555 92.1637 27.8733 92.1637 31.43C92.1637 35.0233 93.0437 38.36 94.8037 41.44C96.5637 44.52 98.892 46.9767 101.789 48.81C104.722 50.6067 107.875 51.505 111.249 51.505C113.669 51.505 115.777 51.23 117.574 50.68C119.37 50.0933 121.167 49.195 122.964 47.985V50.02C121.204 51.0833 119.389 51.8533 117.519 52.33C115.685 52.8433 113.669 53.1 111.469 53.1ZM150.471 53.1C146.621 53.1 143.046 52.0917 139.746 50.075C136.446 48.0583 133.824 45.3817 131.881 42.045C129.974 38.6717 129.021 35.06 129.021 31.21C129.021 27.3967 129.992 23.84 131.936 20.54C133.879 17.2033 136.501 14.5633 139.801 12.62C143.101 10.64 146.676 9.65 150.526 9.65C154.412 9.65 157.987 10.6217 161.251 12.565C164.514 14.5083 167.099 17.1483 169.006 20.485C170.949 23.785 171.921 27.36 171.921 31.21C171.921 35.17 170.949 38.8367 169.006 42.21C167.099 45.5467 164.496 48.205 161.196 50.185C157.932 52.1283 154.357 53.1 150.471 53.1ZM150.471 51.505C153.991 51.505 157.254 50.6067 160.261 48.81C163.267 46.9767 165.651 44.52 167.411 41.44C169.207 38.3233 170.106 34.95 170.106 31.32C170.106 27.7267 169.226 24.39 167.466 21.31C165.706 18.23 163.322 15.7917 160.316 13.995C157.309 12.1617 154.046 11.245 150.526 11.245C146.969 11.245 143.687 12.1617 140.681 13.995C137.674 15.7917 135.272 18.23 133.476 21.31C131.716 24.39 130.836 27.7267 130.836 31.32C130.836 34.95 131.716 38.3233 133.476 41.44C135.272 44.52 137.674 46.9767 140.681 48.81C143.687 50.6067 146.951 51.505 150.471 51.505ZM179.389 10.75H181.149C187.712 10.75 192.772 12.5467 196.329 16.14C199.922 19.6967 201.719 24.775 201.719 31.375C201.719 35.1517 200.802 38.6167 198.969 41.77C197.136 44.9233 194.642 47.4167 191.489 49.25C188.372 51.0833 184.926 52 181.149 52H179.389V10.75ZM181.589 50.295C184.962 50.295 188.042 49.47 190.829 47.82C193.616 46.1333 195.816 43.8417 197.429 40.945C199.079 38.0483 199.904 34.8583 199.904 31.375C199.904 25.2883 198.309 20.6133 195.119 17.35C191.966 14.05 187.456 12.4 181.589 12.4H181.149V50.295H181.589ZM209.199 10.75H223.994V12.345H211.014V34.785H221.849V36.38H211.014V50.405H223.994V52H209.199V10.75Z" fill="white"/>
<path d="M146.446 27.8779C146.531 27.9626 146.573 28.0811 146.573 28.2334C146.573 28.3857 146.561 28.5212 146.535 28.6396C146.514 28.7581 146.47 28.8766 146.402 28.9951C146.266 29.2279 146.008 29.4691 145.627 29.7188L143.393 31.2041L145.627 32.6895C146.156 33.0576 146.459 33.4173 146.535 33.7686C146.561 33.887 146.573 33.995 146.573 34.0923C146.573 34.2996 146.531 34.4456 146.446 34.5303L142.396 31.7437C142.16 31.5786 142.041 31.3988 142.041 31.2041C142.041 31.0094 142.16 30.8296 142.396 30.6646L146.446 27.8779ZM148.452 36.6948C148.084 36.6948 147.9 36.4832 147.9 36.0601C147.9 35.8908 147.949 35.6644 148.046 35.3809L151.423 24.9263C151.495 24.8713 151.582 24.8438 151.683 24.8438C152.051 24.8438 152.235 25.0553 152.235 25.4785C152.235 25.6478 152.187 25.8742 152.089 26.1577L148.712 36.6123C148.64 36.6673 148.554 36.6948 148.452 36.6948ZM153.714 27.8779C153.63 27.9626 153.587 28.0811 153.587 28.2334C153.587 28.3857 153.598 28.5212 153.619 28.6396C153.645 28.7581 153.691 28.8766 153.759 28.9951C153.894 29.2279 154.152 29.4691 154.533 29.7188L156.768 31.2041L154.533 32.6895C154.004 33.0576 153.702 33.4173 153.625 33.7686C153.6 33.887 153.587 33.995 153.587 34.0923C153.587 34.2996 153.63 34.4456 153.714 34.5303L157.764 31.7437C158.001 31.5786 158.12 31.3988 158.12 31.2041C158.12 31.0094 158.001 30.8296 157.764 30.6646L153.714 27.8779Z" fill="white"/>
</svg>
