<svg width="15" height="15" viewBox="0 0 15 15" fill="none" xmlns="http://www.w3.org/2000/svg">
<g clip-path="url(#clip0)">
<path d="M14.6249 2.4375H0.374939C0.168689 2.4375 -6.10352e-05 2.60625 -6.10352e-05 2.8125V12.1875C-6.10352e-05 12.3938 0.168689 12.5625 0.374939 12.5625H14.6249C14.8312 12.5625 14.9999 12.3938 14.9999 12.1875V2.8125C14.9999 2.60625 14.8312 2.4375 14.6249 2.4375ZM13.7249 3.1875L7.49994 9.4125L1.27494 3.1875H13.7249ZM0.749939 3.7125L4.53744 7.5L0.749939 11.2875V3.7125ZM1.29369 11.8125L5.06244 8.04375L7.23744 10.2188C7.38744 10.3688 7.61244 10.3688 7.76244 10.2188L9.93744 8.04375L13.7062 11.8125H1.29369ZM14.2499 11.2875L10.4624 7.5L14.2499 3.7125V11.2875Z" fill="white"/>
</g>
<defs>
<clipPath id="clip0">
<rect width="15" height="15" fill="white"/>
</clipPath>
</defs>
</svg>
