<svg width="24" height="24" viewBox="0 0 24 24" fill="none" xmlns="http://www.w3.org/2000/svg">
<g clip-path="url(#clip0)">
<path d="M18.724 0.78125H5.30729C2.66509 0.78125 0.515625 2.93071 0.515625 5.57292V18.9896C0.515625 21.6318 2.66509 23.7812 5.30729 23.7812H18.724C21.3662 23.7812 23.5156 21.6318 23.5156 18.9896V5.57292C23.5156 2.93071 21.3662 0.78125 18.724 0.78125ZM21.599 18.9896C21.599 20.5752 20.3096 21.8646 18.724 21.8646H5.30729C3.72169 21.8646 2.43229 20.5752 2.43229 18.9896V5.57292C2.43229 3.98731 3.72169 2.69792 5.30729 2.69792H18.724C20.3096 2.69792 21.599 3.98731 21.599 5.57292V18.9896Z" fill="white"/>
<path d="M12.0156 6.05176C8.58098 6.05176 5.78647 8.84627 5.78647 12.2809C5.78647 15.7156 8.58098 18.5101 12.0156 18.5101C15.4503 18.5101 18.2448 15.7156 18.2448 12.2809C18.2448 8.84627 15.4503 6.05176 12.0156 6.05176ZM12.0156 16.5934C9.63805 16.5934 7.70314 14.6585 7.70314 12.2809C7.70314 9.90334 9.63805 7.96842 12.0156 7.96842C14.3932 7.96842 16.3281 9.90334 16.3281 12.2809C16.3281 14.6585 14.3932 16.5934 12.0156 16.5934Z" fill="white"/>
<path d="M18.724 4.13574C17.9315 4.13574 17.2865 4.78079 17.2865 5.57324C17.2865 6.36569 17.9315 7.01074 18.724 7.01074C19.5164 7.01074 20.1615 6.36569 20.1615 5.57324C20.1615 4.78079 19.5164 4.13574 18.724 4.13574Z" fill="white"/>
</g>
<defs>
<clipPath id="clip0">
<rect width="23" height="23" fill="white" transform="translate(0.515625 0.78125)"/>
</clipPath>
</defs>
</svg>
