<svg width="24" height="24" viewBox="0 0 24 24" fill="none" xmlns="http://www.w3.org/2000/svg">
<g clip-path="url(#clip0)">
<path d="M20.8203 0.78125H3.21094C1.72474 0.78125 0.515625 1.99037 0.515625 3.47656V21.0859C0.515625 22.5721 1.72474 23.7812 3.21094 23.7812H20.8203C22.3065 23.7812 23.5156 22.5721 23.5156 21.0859V3.47656C23.5156 1.99037 22.3065 0.78125 20.8203 0.78125ZM21.7188 21.0859C21.7188 21.5813 21.3157 21.9844 20.8203 21.9844H15.6992V14.6621H18.4749L18.9336 11.877H15.6992V9.94531C15.6992 9.18276 16.2843 8.59766 17.0469 8.59766H18.8887V5.8125H17.0469C14.7593 5.8125 12.9151 7.66553 12.9151 9.95313V11.877H10.2188V14.6621H12.9151V21.9844H3.21094C2.71554 21.9844 2.3125 21.5813 2.3125 21.0859V3.47656C2.3125 2.98116 2.71554 2.57812 3.21094 2.57812H20.8203C21.3157 2.57812 21.7188 2.98116 21.7188 3.47656V21.0859Z" fill="white"/>
</g>
<defs>
<clipPath id="clip0">
<rect width="23" height="23" fill="white" transform="translate(0.515625 0.78125)"/>
</clipPath>
</defs>
</svg>
